<?xml version="1.0" encoding="utf-8"?>
<!-- Generator: Adobe Illustrator 21.0.2, SVG Export Plug-In . SVG Version: 6.00 Build 0)  -->
<svg version="1.1" id="图层_1" xmlns="http://www.w3.org/2000/svg" xmlns:xlink="http://www.w3.org/1999/xlink" x="0px" y="0px"
	 viewBox="0 0 40 45" style="enable-background:new 0 0 40 45;" xml:space="preserve" width="40" height="40">
<style type="text/css">
	.st0{fill:#2F96FF;}
	.st1{fill:url(#SVGID_1_);}
</style>
<title>iot-icon</title>
<path class="st0" d="M40,19.9C40,8.9,31.1,0,20.2,0S0.3,8.9,0.3,19.8c0,8.3,5.2,15.7,13,18.6l0.7,0.4c3.4,2.1,5.8,4.9,6.2,6.1
	c0.4-1.2,3-4.1,6.2-6.2c0.1-0.1,0.2-0.2,0.4-0.2C34.6,35.8,40,28.3,40,19.9z"/>
<linearGradient id="SVGID_1_" gradientUnits="userSpaceOnUse" x1="20.111" y1="43.38" x2="20.111" y2="8" gradientTransform="matrix(1 0 0 -1 0 46)">
	<stop  offset="0" style="stop-color:#FFFFFF"/>
	<stop  offset="1" style="stop-color:#E6E6E6"/>
</linearGradient>
<circle class="st1" cx="20.1" cy="19.7" r="17.7"/>
<g>
	<path class="st0" d="M20.1,14.5c-2.9,0-5.2,2.3-5.2,5.2c0,2.9,2.3,5.2,5.2,5.2c2.9,0,5.2-2.3,5.2-5.2C25.3,16.8,23,14.5,20.1,14.5
		L20.1,14.5z M20.1,24.2c-2.5,0-4.5-2-4.5-4.5s2-4.5,4.5-4.5c2.5,0,4.5,2,4.5,4.5C24.7,22.2,22.6,24.2,20.1,24.2L20.1,24.2z
		 M20.1,24.2"/>
	<path class="st0" d="M29.1,19.6c0-2.9-1.3-5.4-3.4-7.1l-0.8-4.8c-0.2-0.9-1-1.6-1.9-1.6h-5.8c-0.9,0-1.7,0.7-1.9,1.6l-0.8,4.8
		c-2.1,1.6-3.4,4.2-3.4,7.1c0,2.9,1.3,5.4,3.4,7.1l0.8,4.8c0.2,0.9,1,1.6,1.9,1.6H23c0.9,0,1.7-0.7,1.9-1.6l0.8-4.8
		C27.8,25.1,29.1,22.5,29.1,19.6L29.1,19.6z M13.4,19.6c0-3.7,3-6.8,6.8-6.8c3.7,0,6.8,3,6.8,6.8c0,3.7-3,6.8-6.8,6.8
		C16.4,26.4,13.4,23.4,13.4,19.6L13.4,19.6z M13.4,19.6"/>
</g>
</svg>
