<?xml version="1.0" encoding="utf-8"?>
<!-- Generator: Adobe Illustrator 21.0.2, SVG Export Plug-In . SVG Version: 6.00 Build 0)  -->
<svg version="1.1" id="图层_1" xmlns="http://www.w3.org/2000/svg" xmlns:xlink="http://www.w3.org/1999/xlink" x="0px" y="0px"
	 viewBox="0 0 16 16" style="enable-background:new 0 0 16 16;" xml:space="preserve" width="16" height="16">
<style type="text/css">
	.st0{fill:#0087EF;}
	.st1{fill:#FFFFFF;}
</style>
<circle class="st0" cx="8" cy="8" r="8"/>
<g>
	<path class="st1" d="M11.9,2.7v10.5c0,0.4-0.1,0.7-0.4,0.9c-0.3,0.3-0.6,0.4-0.9,0.4H5.3c-0.4,0-0.7-0.1-0.9-0.4
		C4.2,13.8,4,13.5,4,13.2V2.7C4,2.3,4.2,2,4.4,1.7C4.7,1.5,5,1.4,5.3,1.4h5.3c0.4,0,0.7,0.1,0.9,0.4C11.8,2,11.9,2.3,11.9,2.7z
		 M10.9,11.5V4.3c0-0.1,0-0.2-0.1-0.2C10.8,4,10.7,4,10.6,4H5.3C5.3,4,5.2,4,5.1,4.1C5.1,4.1,5,4.2,5,4.3v7.2c0,0.1,0,0.2,0.1,0.2
		s0.1,0.1,0.2,0.1h5.3c0.1,0,0.2,0,0.2-0.1C10.9,11.7,10.9,11.6,10.9,11.5z M9,2.8c0-0.1-0.1-0.2-0.2-0.2H7.2C7,2.7,7,2.7,7,2.8
		S7,3,7.2,3h1.6C8.9,3,9,2.9,9,2.8z M8.6,13.8c0.2-0.2,0.2-0.4,0.2-0.6c0-0.2-0.1-0.4-0.2-0.6c-0.2-0.2-0.4-0.2-0.6-0.2
		s-0.4,0.1-0.6,0.2c-0.2,0.2-0.2,0.4-0.2,0.6c0,0.2,0.1,0.4,0.2,0.6C7.6,13.9,7.8,14,8,14S8.4,13.9,8.6,13.8z"/>
</g>
</svg>
