<?xml version="1.0" encoding="utf-8"?>
<!-- Generator: Adobe Illustrator 21.0.2, SVG Export Plug-In . SVG Version: 6.00 Build 0)  -->
<svg version="1.1" baseProfile="tiny" id="图层_1"
	 xmlns="http://www.w3.org/2000/svg" xmlns:xlink="http://www.w3.org/1999/xlink" x="0px" y="0px" viewBox="0 0 16 16"
	 xml:space="preserve"  width="16" height="16">
<circle fill="#0087EF" cx="8" cy="8" r="8"/>
<g>
	<path fill="#FFFFFF" d="M13.1,7.1c0,1.1-0.3,2-0.9,2.9c-0.6,0.9-1.4,1.5-2.3,1.9c0,0-0.1,0-0.1,0s0-0.1,0-0.1
		c0-0.2,0.1-0.4,0.1-0.4c0-0.1,0-0.2,0-0.3c0,0,0-0.1,0.1-0.1c0.7-0.4,1.3-0.9,1.7-1.6s0.6-1.4,0.6-2.3c0-0.8-0.2-1.5-0.6-2.2
		c-0.4-0.7-1-1.2-1.7-1.6C9.3,2.9,8.6,2.7,7.8,2.8C7.2,2.8,6.7,3,6.2,3.2C5.7,3.4,5.2,3.8,4.9,4.1C4.5,4.5,4.2,5,4,5.5
		S3.7,6.5,3.7,7.1c0,0.8,0.2,1.6,0.7,2.3s1,1.2,1.7,1.6c0,0,0.1,0,0.1,0.1c0,0.1,0,0.2,0,0.3c0,0,0,0.1,0,0.2c0,0.1,0,0.2,0,0.2
		c0,0,0,0.1,0,0.1c0,0-0.1,0-0.1,0c-0.7-0.3-1.2-0.6-1.7-1.1C3.9,10.2,3.5,9.6,3.2,9C2.9,8.3,2.8,7.6,2.9,6.8C2.9,6.2,3,5.6,3.3,5
		c0.3-0.6,0.6-1.1,1-1.5C4.8,3,5.3,2.7,5.8,2.4C6.4,2.1,7,2,7.7,1.9c0.7,0,1.4,0.1,2.1,0.3c0.7,0.3,1.3,0.6,1.7,1.1s0.9,1,1.2,1.7
		C13,5.7,13.1,6.3,13.1,7.1z M11.4,7.1c0,0.5-0.1,1.1-0.4,1.5s-0.6,0.9-1,1.2c0,0-0.1,0-0.1,0s-0.1,0-0.1-0.1c0-0.2-0.1-0.4-0.2-0.6
		c0,0,0-0.1,0-0.1c0.3-0.2,0.5-0.5,0.6-0.9c0.1-0.3,0.2-0.7,0.2-1c0-0.5-0.1-1-0.4-1.4C9.9,5.3,9.6,5,9.1,4.8
		C8.7,4.5,8.2,4.5,7.7,4.5C7.1,4.6,6.6,4.8,6.2,5.3s-0.7,1-0.7,1.5c0,0.4,0,0.8,0.2,1.2C5.8,8.4,6,8.7,6.3,9c0,0,0.1,0.1,0,0.1
		C6.2,9.3,6.1,9.5,6.1,9.7c0,0,0,0.1-0.1,0.1c0,0-0.1,0-0.1,0c-0.4-0.3-0.8-0.7-1-1.2C4.7,8.1,4.6,7.6,4.6,7c0-0.6,0.2-1.1,0.5-1.6
		c0.3-0.5,0.7-0.9,1.2-1.2c0.5-0.3,1-0.5,1.6-0.5c0.6,0,1.2,0.1,1.8,0.4c0.6,0.3,1,0.7,1.3,1.3S11.4,6.4,11.4,7.1z M9.1,5.8
		c0.3,0.3,0.4,0.6,0.4,1.1c0,0.4-0.1,0.8-0.4,1.1C8.8,8.2,8.4,8.4,8,8.4S7.2,8.2,6.9,7.9C6.7,7.6,6.5,7.3,6.5,6.9
		c0-0.4,0.1-0.8,0.4-1.1S7.6,5.4,8,5.4S8.8,5.5,9.1,5.8z M9.5,9.9c0,0.4,0,0.8-0.1,1.3c-0.1,1-0.3,1.7-0.4,2.1
		c-0.1,0.4-0.4,0.6-1,0.6c-0.6,0-0.9-0.2-1-0.6c-0.1-0.4-0.2-1.1-0.4-2.1c-0.1-0.5-0.1-0.9-0.1-1.3C6.5,9.2,7,8.8,8,8.8
		S9.5,9.2,9.5,9.9z"/>
</g>
</svg>
